<svg width="232" height="106" viewBox="0 0 232 106" fill="none" xmlns="http://www.w3.org/2000/svg">
<path d="M123.104 70.8555L124.103 67.7344H125.27L123.493 72.7373C123.394 72.9944 123.3 73.1905 123.21 73.3262C123.12 73.4613 123.017 73.5723 122.9 73.6562C122.783 73.7406 122.64 73.8069 122.47 73.8535C122.299 73.9009 122.107 73.9248 121.893 73.9248C121.676 73.9248 121.462 73.9005 121.253 73.8535L121.147 72.9424C121.325 72.979 121.486 72.9971 121.628 72.9971C121.892 72.997 122.087 72.9161 122.214 72.7559C122.34 72.5948 122.437 72.3896 122.504 72.1416L120.879 67.7344H122.081L123.104 70.8555Z" fill="white"/>
<path fill-rule="evenodd" clip-rule="evenodd" d="M75.0264 67.625C75.554 67.625 75.99 67.8641 76.333 68.3418V67.7334H77.3838V71.6846C77.3838 72.2043 77.3421 72.593 77.2588 72.8496C77.1758 73.1068 77.0593 73.3087 76.9092 73.4551C76.7591 73.6013 76.559 73.7161 76.3086 73.7988C76.0578 73.8817 75.7405 73.9229 75.3574 73.9229C74.6336 73.9228 74.1205 73.7941 73.8174 73.5371C73.5143 73.2801 73.3623 72.9545 73.3623 72.5596C73.3623 72.5207 73.3646 72.4737 73.3672 72.418L74.6514 72.5625C74.6731 72.726 74.7222 72.8388 74.7998 72.9004C74.9074 72.9883 75.0776 73.0322 75.3086 73.0322C75.604 73.0322 75.8257 72.9864 75.9736 72.8955C76.0726 72.8346 76.1481 72.7367 76.1992 72.6016C76.234 72.5045 76.251 72.3269 76.251 72.0674L76.2549 71.4258C75.9208 71.8946 75.4966 72.1289 74.9824 72.1289C74.4089 72.1288 73.9549 71.8784 73.6201 71.3779C73.3576 70.9826 73.2266 70.49 73.2266 69.9014C73.2266 69.1635 73.3983 68.5999 73.7422 68.21C74.0863 67.8205 74.5149 67.6251 75.0264 67.625ZM75.3066 68.5195C75.0385 68.5196 74.8173 68.6288 74.6436 68.8457C74.4695 69.0634 74.3828 69.3945 74.3828 69.8398C74.3828 70.3076 74.4694 70.6502 74.6436 70.8672C74.8173 71.0849 75.0319 71.1933 75.2871 71.1934C75.5603 71.1934 75.7917 71.0821 75.9805 70.8594C76.1687 70.6367 76.2626 70.3063 76.2627 69.8691C76.2627 69.4129 76.1727 69.0731 75.9922 68.8516C75.8113 68.6304 75.5828 68.5195 75.3066 68.5195Z" fill="white"/>
<path d="M145.072 67.7373H145.844V68.6641H145.072V70.4424C145.072 70.8023 145.079 71.0129 145.094 71.0723C145.108 71.1319 145.141 71.1808 145.192 71.2197C145.244 71.2582 145.306 71.2783 145.38 71.2783C145.483 71.2782 145.631 71.2403 145.826 71.166L145.925 72.0674C145.664 72.1833 145.368 72.2412 145.038 72.2412C144.835 72.2412 144.653 72.2063 144.49 72.1357C144.328 72.0656 144.209 71.9734 144.133 71.8613C144.057 71.7496 144.005 71.598 143.976 71.4072C143.951 71.2716 143.939 70.9977 143.939 70.5859V68.6641H143.426V67.7373H143.939V66.8584L145.072 66.1719V67.7373Z" fill="white"/>
<path d="M62.0176 65.9531C62.756 65.9531 63.3122 66.1206 63.6855 66.4551C64.0588 66.7899 64.2548 67.2372 64.2734 67.7959L63.082 67.8438C63.0312 67.5316 62.9223 67.3071 62.7549 67.1699C62.5878 67.0331 62.3364 66.9648 62.002 66.9648C61.6569 66.9649 61.3868 67.0382 61.1914 67.1846C61.0658 67.2781 61.003 67.4036 61.0029 67.5605C61.0029 67.7043 61.062 67.8272 61.1797 67.9297C61.3291 68.0591 61.6929 68.1941 62.2705 68.334C62.8475 68.4742 63.2748 68.6195 63.5518 68.7705C63.8282 68.9211 64.0456 69.1275 64.2021 69.3887C64.3583 69.6507 64.4365 69.9739 64.4365 70.3584C64.4365 70.7075 64.3429 71.0344 64.1553 71.3389C63.9678 71.643 63.7027 71.8687 63.3604 72.0166C63.0178 72.1645 62.5905 72.2392 62.0791 72.2393C61.3347 72.2393 60.7624 72.0609 60.3633 71.7041C59.9646 71.3473 59.7262 70.8271 59.6484 70.1436L60.8047 70.0234C60.8742 70.4254 61.0159 70.7204 61.2285 70.9092C61.4415 71.0975 61.7286 71.1914 62.0898 71.1914C62.4724 71.1914 62.7608 71.1076 62.9551 70.9404C63.1486 70.773 63.245 70.5775 63.2451 70.3535C63.2451 70.21 63.2049 70.0876 63.124 69.9863C63.0426 69.8854 62.9001 69.7978 62.6973 69.7227C62.5582 69.6737 62.2417 69.5854 61.748 69.459C61.1125 69.2972 60.6675 69.0973 60.4111 68.8604C60.051 68.5275 59.8702 68.1218 59.8701 67.6426C59.8701 67.3347 59.955 67.0455 60.125 66.7773C60.2946 66.5088 60.54 66.3043 60.8594 66.1641C61.1792 66.0238 61.5655 65.9531 62.0176 65.9531Z" fill="white"/>
<path d="M95.4609 69.7559C95.4609 70.3747 95.4816 70.7544 95.5234 70.8936C95.5649 71.0336 95.6402 71.144 95.75 71.2256C95.8599 71.3069 95.9991 71.3467 96.168 71.3467C96.3608 71.3467 96.5341 71.293 96.6865 71.1836C96.8392 71.0746 96.9436 70.9391 97 70.7773C97.056 70.6157 97.084 70.2201 97.084 69.5908V67.7344H98.2168V72.1299H97.166V71.4717C97.0102 71.7063 96.8055 71.8929 96.5518 72.0312C96.2981 72.1691 96.0307 72.2383 95.749 72.2383C95.4617 72.2383 95.2049 72.1728 94.9766 72.043C94.7486 71.9131 94.5835 71.7307 94.4814 71.4961C94.3794 71.261 94.3281 70.9361 94.3281 70.5215V67.7344H95.4609V69.7559Z" fill="white"/>
<path fill-rule="evenodd" clip-rule="evenodd" d="M82.9062 67.625C83.5424 67.6251 84.0445 67.8422 84.4121 68.2764C84.7798 68.7114 84.9555 69.3773 84.9395 70.2744H82.1016C82.1094 70.6204 82.2013 70.8894 82.377 71.082C82.5526 71.2739 82.7718 71.3701 83.0342 71.3701C83.2124 71.3701 83.363 71.3207 83.4844 71.2217C83.6056 71.123 83.6978 70.9635 83.7598 70.7441L84.8809 70.9365C84.7359 71.3598 84.5069 71.6827 84.1943 71.9043C83.8815 72.1263 83.4893 72.2373 83.0195 72.2373C82.2756 72.2373 81.725 71.9866 81.3682 71.4854C81.086 71.0838 80.9453 70.5766 80.9453 69.9639C80.9454 69.2333 81.1303 68.6603 81.501 68.2461C81.8713 67.8319 82.3401 67.625 82.9062 67.625ZM82.9736 68.5195C82.7259 68.5195 82.5208 68.6141 82.3594 68.8018C82.1977 68.9894 82.1185 69.2449 82.1211 69.5674H83.8174C83.8095 69.2253 83.7252 68.9655 83.5635 68.7871C83.402 68.6091 83.2053 68.5195 82.9736 68.5195Z" fill="white"/>
<path fill-rule="evenodd" clip-rule="evenodd" d="M104.994 67.625C105.64 67.625 106.168 67.8419 106.581 68.2754C106.993 68.7089 107.199 69.257 107.199 69.9189C107.199 70.5862 106.99 71.1403 106.574 71.5791C106.158 72.0177 105.634 72.2373 105.002 72.2373C104.611 72.2373 104.238 72.1451 103.884 71.9629C103.529 71.7799 103.259 71.5125 103.074 71.1592C102.889 70.8058 102.797 70.3757 102.797 69.8682C102.797 69.4806 102.889 69.1051 103.074 68.7422C103.259 68.3798 103.521 68.1032 103.859 67.9121C104.198 67.721 104.576 67.625 104.994 67.625ZM105 68.5703C104.705 68.5704 104.456 68.6872 104.255 68.9199C104.054 69.1523 103.953 69.4877 103.953 69.9248C103.953 70.3629 104.053 70.6979 104.255 70.9307C104.456 71.1633 104.705 71.2792 105 71.2793C105.295 71.2793 105.543 71.1634 105.743 70.9307C105.943 70.698 106.043 70.36 106.043 69.917C106.043 69.4852 105.943 69.1523 105.743 68.9199C105.543 68.6872 105.295 68.5703 105 68.5703Z" fill="white"/>
<path fill-rule="evenodd" clip-rule="evenodd" d="M118.27 67.625C118.773 67.625 119.148 67.687 119.395 67.8096C119.641 67.9332 119.814 68.0892 119.914 68.2783C120.015 68.4675 120.065 68.8153 120.065 69.3213L120.054 70.6816C120.054 71.0685 120.072 71.3547 120.107 71.5381C120.144 71.7219 120.212 71.9189 120.311 72.1289H119.189C119.16 72.053 119.124 71.9396 119.081 71.79C119.062 71.7219 119.048 71.6772 119.041 71.6553C118.848 71.8491 118.642 71.9947 118.423 72.0918C118.203 72.1885 117.97 72.2373 117.721 72.2373C117.282 72.2372 116.936 72.114 116.684 71.8682C116.431 71.622 116.305 71.3106 116.305 70.9346C116.305 70.686 116.362 70.4635 116.477 70.2686C116.592 70.0736 116.754 69.924 116.961 69.8203C117.169 69.717 117.468 69.6263 117.859 69.5488C118.387 69.4467 118.752 69.3513 118.956 69.2627V69.1455C118.956 68.9189 118.902 68.7569 118.794 68.6602C118.686 68.564 118.483 68.5156 118.185 68.5156C117.983 68.5156 117.825 68.557 117.712 68.6387C117.599 68.7208 117.507 68.8649 117.438 69.0703L116.422 68.877C116.537 68.4514 116.735 68.1362 117.016 67.9316C117.297 67.7271 117.715 67.625 118.27 67.625ZM118.955 70.0234C118.81 70.0735 118.582 70.1329 118.271 70.2021C117.958 70.2711 117.753 70.339 117.657 70.4053C117.51 70.5136 117.438 70.6513 117.438 70.8174C117.438 70.9811 117.496 71.1218 117.613 71.2412C117.731 71.3603 117.881 71.4199 118.062 71.4199C118.265 71.4199 118.459 71.3512 118.644 71.2129C118.779 71.1074 118.868 70.9785 118.911 70.8262C118.94 70.7264 118.955 70.536 118.955 70.2559V70.0234Z" fill="white"/>
<path fill-rule="evenodd" clip-rule="evenodd" d="M135.426 67.625C136.062 67.625 136.564 67.8421 136.932 68.2764C137.299 68.7114 137.475 69.3773 137.459 70.2744H134.621C134.629 70.6203 134.721 70.8894 134.896 71.082C135.072 71.2739 135.291 71.3701 135.554 71.3701C135.732 71.3701 135.882 71.3207 136.004 71.2217C136.126 71.123 136.217 70.9635 136.279 70.7441L137.4 70.9365C137.255 71.3599 137.027 71.6827 136.714 71.9043C136.401 72.1263 136.009 72.2373 135.539 72.2373C134.796 72.2373 134.245 71.9866 133.888 71.4854C133.606 71.0838 133.465 70.5766 133.465 69.9639C133.465 69.2333 133.651 68.6603 134.021 68.2461C134.391 67.8319 134.859 67.625 135.426 67.625ZM135.493 68.5195C135.246 68.5195 135.04 68.6141 134.879 68.8018C134.717 68.9894 134.638 69.2449 134.641 69.5674H136.337C136.329 69.2252 136.244 68.9655 136.082 68.7871C135.921 68.6093 135.725 68.5196 135.493 68.5195Z" fill="white"/>
<path d="M148.425 67.625C149.011 67.625 149.447 67.7225 149.732 67.917C150.018 68.112 150.214 68.4001 150.322 68.7812L149.26 68.9854C149.214 68.8149 149.126 68.6837 148.998 68.5928C148.869 68.5014 148.685 68.4561 148.447 68.4561C148.147 68.4561 147.931 68.4984 147.802 68.585C147.715 68.6458 147.672 68.7252 147.672 68.8223C147.672 68.9058 147.709 68.9766 147.784 69.0352C147.886 69.1126 148.239 69.2225 148.843 69.3643C149.446 69.506 149.868 69.6795 150.107 69.8848C150.344 70.0928 150.463 70.3832 150.463 70.7549C150.463 71.1599 150.299 71.5085 149.973 71.7998C149.646 72.0915 149.163 72.2373 148.523 72.2373C147.943 72.2373 147.483 72.1156 147.145 71.874C146.806 71.6317 146.585 71.304 146.48 70.8887L147.613 70.708C147.662 70.9326 147.759 71.103 147.906 71.2197C148.053 71.3363 148.259 71.3945 148.523 71.3945C148.815 71.3945 149.035 71.3385 149.182 71.2275C149.28 71.1494 149.33 71.0458 149.33 70.915C149.33 70.8264 149.303 70.7521 149.249 70.6943C149.192 70.6385 149.066 70.5874 148.869 70.54C147.954 70.3316 147.373 70.1412 147.129 69.9697C146.79 69.732 146.621 69.4011 146.621 68.9785C146.621 68.5962 146.767 68.2754 147.061 68.0156C147.354 67.7556 147.809 67.625 148.425 67.625Z" fill="white"/>
<path fill-rule="evenodd" clip-rule="evenodd" d="M165.48 67.625C166.116 67.625 166.618 67.8422 166.986 68.2764C167.354 68.7114 167.53 69.3773 167.514 70.2744H164.676C164.684 70.6204 164.776 70.8894 164.951 71.082C165.127 71.2739 165.346 71.3701 165.608 71.3701C165.787 71.3701 165.937 71.3207 166.059 71.2217C166.18 71.123 166.272 70.9636 166.334 70.7441L167.455 70.9365C167.31 71.3599 167.081 71.6827 166.769 71.9043C166.456 72.1262 166.064 72.2372 165.595 72.2373C164.851 72.2373 164.299 71.9866 163.942 71.4854C163.66 71.0838 163.52 70.5766 163.52 69.9639C163.52 69.2334 163.705 68.6603 164.075 68.2461C164.445 67.8318 164.914 67.625 165.48 67.625ZM165.548 68.5195C165.3 68.5195 165.095 68.6141 164.934 68.8018C164.772 68.9894 164.692 69.2449 164.695 69.5674H166.392C166.383 69.2253 166.299 68.9655 166.138 68.7871C165.976 68.6091 165.779 68.5195 165.548 68.5195Z" fill="white"/>
<path fill-rule="evenodd" clip-rule="evenodd" d="M170.339 67.625C170.842 67.625 171.218 67.687 171.464 67.8096C171.71 67.9333 171.884 68.0891 171.984 68.2783C172.085 68.4676 172.135 68.8155 172.135 69.3213L172.124 70.6816C172.124 71.0685 172.142 71.3547 172.178 71.5381C172.214 71.7218 172.281 71.919 172.38 72.1289H171.259C171.229 72.053 171.194 71.9396 171.15 71.79C171.132 71.722 171.119 71.6772 171.111 71.6553C170.919 71.8491 170.713 71.9947 170.493 72.0918C170.274 72.1885 170.04 72.2373 169.791 72.2373C169.352 72.2373 169.007 72.1139 168.754 71.8682C168.502 71.622 168.375 71.3106 168.375 70.9346C168.375 70.686 168.432 70.4635 168.547 70.2686C168.662 70.0736 168.824 69.924 169.031 69.8203C169.239 69.7171 169.539 69.6263 169.93 69.5488C170.457 69.4468 170.822 69.3513 171.025 69.2627V69.1455C171.025 68.9189 170.972 68.7569 170.864 68.6602C170.757 68.5639 170.553 68.5156 170.254 68.5156C170.052 68.5157 169.895 68.5572 169.782 68.6387C169.669 68.7208 169.577 68.8649 169.508 69.0703L168.491 68.877C168.606 68.4513 168.805 68.1362 169.086 67.9316C169.367 67.7272 169.785 67.625 170.339 67.625ZM171.025 70.0234C170.881 70.0735 170.653 70.1329 170.341 70.2021C170.028 70.2711 169.824 70.339 169.728 70.4053C169.58 70.5136 169.508 70.6513 169.508 70.8174C169.508 70.981 169.566 71.1218 169.684 71.2412C169.801 71.3603 169.951 71.4199 170.133 71.4199C170.336 71.4199 170.529 71.3512 170.714 71.2129C170.85 71.1074 170.939 70.9785 170.981 70.8262C171.011 70.7264 171.025 70.536 171.025 70.2559V70.0234Z" fill="white"/>
<path d="M66.8047 72.1338H65.6719V67.7383H66.8047V72.1338Z" fill="white"/>
<path d="M79.875 72.1318H78.7422V66.0625H79.875V72.1318Z" fill="white"/>
<path d="M93.001 67.0859H89.8359V68.4355H92.7793V69.459H89.8359V71.1084H93.1172V72.1318H88.6445V66.0625H93.001V67.0859Z" fill="white"/>
<path fill-rule="evenodd" clip-rule="evenodd" d="M112.797 66.0625C113.519 66.0625 113.991 66.0938 114.21 66.1543C114.547 66.2452 114.829 66.4431 115.057 66.748C115.284 67.0529 115.398 67.4474 115.398 67.9307C115.398 68.3033 115.333 68.6164 115.202 68.8711C115.071 69.1247 114.904 69.3239 114.702 69.4688C114.5 69.614 114.295 69.7098 114.087 69.7568C113.803 69.815 113.393 69.8437 112.856 69.8438H112.082V72.1318H110.891V66.0625H112.797ZM112.082 68.8203H112.73C113.197 68.8203 113.51 68.7885 113.668 68.7246C113.825 68.6607 113.949 68.5602 114.038 68.4238C114.127 68.2879 114.173 68.1298 114.173 67.9492C114.173 67.7269 114.11 67.5429 113.984 67.3984C113.859 67.254 113.7 67.1642 113.508 67.1279C113.366 67.1002 113.082 67.0859 112.654 67.0859H112.082V68.8203Z" fill="white"/>
<path fill-rule="evenodd" clip-rule="evenodd" d="M159.542 72.1318H158.26L157.751 70.7588H155.379L154.894 72.1318H153.633L155.913 66.0625H157.165L159.542 72.1318ZM155.742 69.7402H157.36L156.537 67.4883L155.742 69.7402Z" fill="white"/>
<path d="M70.6592 67.625C70.9077 67.625 71.1351 67.6714 71.3408 67.7637C71.5466 67.8561 71.7028 67.9746 71.8086 68.1182C71.9144 68.2619 71.9878 68.4257 72.0293 68.6084C72.0707 68.7907 72.0918 69.0519 72.0918 69.3916V72.1289H70.959V69.8809C70.959 69.4053 70.9346 69.0975 70.8867 68.958C70.8385 68.8186 70.7613 68.7093 70.6533 68.6318C70.5454 68.5548 70.4153 68.5157 70.2637 68.5156C70.069 68.5156 69.894 68.5711 69.7393 68.6816C69.5845 68.7922 69.4791 68.9394 69.4219 69.1221C69.3644 69.3044 69.3359 69.6416 69.3359 70.1338V72.1289H68.2031V67.7334H69.2539V68.3789C69.6257 67.8761 70.0949 67.625 70.6592 67.625Z" fill="white"/>
<path d="M101.599 67.625C101.856 67.6251 102.103 67.699 102.342 67.8457L101.997 68.8633C101.807 68.7366 101.628 68.6729 101.465 68.6729C101.306 68.6729 101.172 68.7183 101.062 68.8076C100.952 68.8978 100.865 69.0598 100.802 69.2939C100.739 69.5286 100.707 70.0212 100.707 70.7695V72.1289H99.5742V67.7334H100.625V68.3584C100.805 68.0635 100.966 67.8677 101.109 67.7705C101.253 67.6738 101.416 67.625 101.599 67.625Z" fill="white"/>
<path d="M131.035 67.625C131.349 67.625 131.615 67.6905 131.832 67.8223C132.049 67.9529 132.212 68.1457 132.319 68.4004C132.397 68.588 132.436 68.8923 132.436 69.3125V72.1289H131.303V69.6113C131.303 69.1748 131.264 68.893 131.187 68.7656C131.082 68.5992 130.921 68.5157 130.705 68.5156C130.547 68.5156 130.398 68.5652 130.259 68.665C130.12 68.7648 130.02 68.9112 129.959 69.1035C129.897 69.2954 129.866 69.5991 129.866 70.0137V72.1289H128.733V69.7148C128.733 69.2857 128.713 69.0096 128.673 68.8848C128.633 68.7605 128.571 68.6682 128.486 68.6074C128.402 68.547 128.288 68.5156 128.144 68.5156C127.97 68.5156 127.813 68.5644 127.674 68.6611C127.535 68.7579 127.436 68.8979 127.375 69.0801C127.315 69.2627 127.285 69.5652 127.285 69.9883V72.1289H126.152V67.7334H127.191V68.334C127.565 67.8615 128.01 67.625 128.525 67.625C128.799 67.625 129.036 67.683 129.237 67.7988C129.439 67.9151 129.604 68.0908 129.732 68.3252C129.92 68.0906 130.123 67.9152 130.34 67.7988C130.557 67.6829 130.789 67.6251 131.035 67.625Z" fill="white"/>
<path d="M141.069 67.625C141.318 67.625 141.546 67.6714 141.751 67.7637C141.957 67.856 142.113 67.9747 142.219 68.1182C142.325 68.2619 142.398 68.4257 142.439 68.6084C142.481 68.7907 142.502 69.0519 142.502 69.3916V72.1289H141.369V69.8809C141.369 69.4055 141.345 69.0976 141.298 68.958C141.25 68.8185 141.171 68.7093 141.063 68.6318C140.956 68.5548 140.825 68.5157 140.674 68.5156C140.48 68.5156 140.305 68.5713 140.15 68.6816C139.996 68.7922 139.89 68.9394 139.832 69.1221C139.775 69.3044 139.746 69.6416 139.746 70.1338V72.1289H138.613V67.7334H139.664V68.3789C140.036 67.8761 140.505 67.625 141.069 67.625Z" fill="white"/>
<path d="M162.376 67.625C162.633 67.6251 162.88 67.699 163.119 67.8457L162.774 68.8633C162.583 68.7366 162.406 68.6729 162.242 68.6729C162.083 68.6729 161.949 68.7183 161.839 68.8076C161.729 68.8978 161.642 69.0596 161.579 69.2939C161.516 69.5286 161.484 70.0212 161.484 70.7695V72.1289H160.352V67.7334H161.402V68.3584C161.582 68.0635 161.743 67.8677 161.887 67.7705C162.03 67.6738 162.193 67.625 162.376 67.625Z" fill="white"/>
<path d="M66.8047 67.1348H65.6719V66.0625H66.8047V67.1348Z" fill="white"/>
<path fill-rule="evenodd" clip-rule="evenodd" d="M134.028 32.0781C136.147 32.0782 137.763 32.2569 138.874 32.6133C141.414 33.4341 143.119 35.1145 143.992 37.6543C144.443 38.9872 144.668 40.9942 144.668 43.6738C144.668 46.8958 144.417 49.2115 143.923 50.6211C142.932 53.4086 140.893 55.0145 137.813 55.4307C137.451 55.4931 135.91 55.5491 133.191 55.5938L131.815 55.6406H126.872V63.8418H118.582V32.0781H134.028ZM126.875 48.2744H132.043C133.681 48.2136 134.678 48.0842 135.037 47.8809C135.527 47.603 135.857 47.0462 136.021 46.2119C136.125 45.6567 136.177 44.8315 136.177 43.7354C136.177 42.392 136.073 41.3956 135.864 40.7451C135.566 39.8343 134.852 39.2797 133.721 39.0781C133.497 39.0477 132.962 39.0312 132.113 39.0312H126.875V48.2744Z" fill="white"/>
<path fill-rule="evenodd" clip-rule="evenodd" d="M172.341 63.8418H163.943L162.362 58.3525H151.277L149.788 63.8418H141.211L150.466 32.0781H162.972L172.341 63.8418ZM153.062 52.168H160.717L156.832 38.3984L153.062 52.168Z" fill="white"/>
<path d="M72.7861 32.2383C76.023 32.2383 78.3298 32.4303 79.7051 32.8105C83.0613 33.7404 84.7392 36.345 84.7393 40.625C84.7393 40.9761 84.7147 41.5014 84.665 42.2031H76.9521C76.9521 40.8983 76.8036 40.0221 76.5078 39.5762C76.0489 38.9164 74.7814 38.5859 72.708 38.5859C70.695 38.586 69.3604 38.776 68.709 39.1562C68.058 39.5377 67.7315 40.3672 67.7314 41.6445C67.7314 42.801 68.0202 43.5628 68.5986 43.9277C69.013 44.1867 69.5605 44.3393 70.2432 44.3848L71.7988 44.498C75.1323 44.7262 77.2145 44.8862 78.0449 44.9775C80.6809 45.2515 82.5916 45.9751 83.7773 47.1465C84.7104 48.0604 85.2668 49.2546 85.4443 50.7295C85.5482 51.612 85.6006 52.6113 85.6006 53.7207C85.6006 56.2776 85.3634 58.1501 84.8896 59.3369C84.0309 61.5145 82.1021 62.8901 79.1006 63.4678C77.8431 63.7121 75.9186 63.834 73.3311 63.834C69.0119 63.834 66.0013 63.5691 64.3018 63.0361C62.216 62.3833 60.8413 61.0607 60.1758 59.0693C59.8051 57.9607 59.6211 56.1147 59.6211 53.5303H67.334C67.334 53.8183 67.334 54.0387 67.334 54.1904C67.334 55.5696 67.7191 56.4566 68.4863 56.8516C69.0181 57.124 69.6601 57.2672 70.415 57.2842H73.25C74.697 57.2842 75.6212 57.2081 76.0195 57.0547C76.7282 56.7672 77.1937 56.3043 77.416 55.6641C77.5341 55.2698 77.5928 54.759 77.5928 54.1348C77.5927 52.7364 77.0968 51.8853 76.1084 51.5801C75.7378 51.4595 74.0182 51.2921 70.9502 51.0791C68.4852 50.8976 66.7724 50.7229 65.8135 50.5537C63.2883 50.0666 61.6054 49.0646 60.7656 47.5439C60.0277 46.2519 59.6582 44.2972 59.6582 41.6826C59.6582 39.6911 59.8581 38.0937 60.2568 36.8926C60.6559 35.6911 61.2991 34.7792 62.1865 34.1553C63.4867 33.1977 65.1506 32.6348 67.1758 32.4668C68.8608 32.3154 70.7301 32.2383 72.7861 32.2383Z" fill="white"/>
<path fill-rule="evenodd" clip-rule="evenodd" d="M107.139 36.5455C110.559 36.5455 113.61 38.1698 115.616 40.7139L117.403 36.7628C114.608 34.0388 110.804 32.3594 106.609 32.3594C100.076 32.3594 94.4883 36.4276 92.1948 42.1863H88.71L86.6523 46.7351H91.1354C91.1017 47.157 91.0801 47.5794 91.0801 48.0102C91.0801 48.5316 91.1062 49.0468 91.1563 49.5559H88.9032L86.8459 54.1061H92.3017C94.6606 59.7192 100.179 63.6599 106.609 63.6599C109.849 63.6599 112.856 62.6587 115.346 60.9485V55.372C113.341 57.7258 110.408 59.2133 107.139 59.2133C103.318 59.2133 99.956 57.1813 97.9985 54.1061H109.423L111.481 49.5559H96.3176C96.2395 49.0083 96.1976 48.4487 96.1976 47.8788C96.1976 47.4934 96.2171 47.1119 96.2529 46.7351H112.756L114.813 42.1863H97.6801C99.5749 38.8145 103.101 36.5455 107.139 36.5455Z" fill="#FFBE00"/>
</svg>
